<svg xmlns="http://www.w3.org/2000/svg" viewBox="0 0 64 64">
  <defs>
    <linearGradient id="g" x1="0" y1="0" x2="1" y2="1">
      <stop offset="0" stop-color="#1e2a55"/>
      <stop offset="1" stop-color="#ff5a14"/>
    </linearGradient>
  </defs>
  <rect width="64" height="64" rx="14" fill="#070b18"/>
  <path d="M32 8c2 6-3 9-3 14a3 3 0 0 0 6 0c0-2 1-3 2-4 3 4 5 7 5 12a10 10 0 1 1-20 0c0-7 6-10 10-22z" fill="url(#g)"/>
  <path d="M27 40l-4 4 4 4M37 40l4 4-4 4M33 38l-4 12" stroke="#fff" stroke-width="2.2" fill="none" stroke-linecap="round" stroke-linejoin="round"/>
</svg>
