<?xml version="1.0" standalone="no"?>
<!DOCTYPE svg PUBLIC "-//W3C//DTD SVG 20010904//EN"
 "http://www.w3.org/TR/2001/REC-SVG-20010904/DTD/svg10.dtd">
<svg version="1.0" xmlns="http://www.w3.org/2000/svg"
 width="742.000000pt" height="757.000000pt" viewBox="0 0 742.000000 757.000000"
 preserveAspectRatio="xMidYMid meet">

<g transform="translate(0.000000,757.000000) scale(0.100000,-0.100000)"
fill="#000000" stroke="none">
<path d="M5008 5793 c7 -3 16 -2 19 1 4 3 -2 6 -13 5 -11 0 -14 -3 -6 -6z"/>
<path d="M2900 4853 c-14 -9 -27 -20 -30 -23 -3 -4 -61 -49 -130 -100 -69 -52
-129 -99 -135 -105 -5 -7 -72 -59 -148 -116 -75 -57 -154 -117 -175 -134 -32
-25 -527 -400 -832 -630 -41 -31 -84 -64 -95 -73 -11 -9 -67 -52 -125 -96
-223 -170 -243 -200 -244 -376 -1 -98 2 -122 20 -160 28 -58 87 -119 194 -200
47 -35 87 -67 90 -70 3 -4 64 -51 135 -105 72 -54 146 -111 165 -127 19 -16
40 -32 45 -36 61 -45 647 -497 809 -624 323 -253 466 -358 485 -358 13 0 14
224 4 575 l-6 230 -116 87 c-64 49 -128 98 -143 110 -14 13 -77 61 -138 108
-62 47 -138 106 -169 131 -31 25 -130 101 -219 170 -245 186 -322 245 -334
257 -6 6 17 30 74 72 45 35 88 69 94 76 6 8 14 14 17 14 7 0 24 13 82 63 18
15 35 27 39 27 6 0 36 23 61 48 8 6 18 12 23 12 6 0 12 4 14 9 2 5 53 46 113
92 61 45 197 150 303 233 106 83 220 171 253 196 l59 45 -1 345 c-1 190 -4
369 -7 398 l-7 53 -25 -18z"/>
<path d="M5353 4369 c-32 -118 -53 -216 -52 -243 2 -28 2 -28 6 -6 3 14 8 27
12 30 13 9 54 211 49 244 -2 12 -8 2 -15 -25z"/>
<path d="M6103 4172 c47 -52 48 -327 2 -467 -58 -174 -149 -295 -305 -405 -35
-25 -84 -63 -109 -86 -25 -22 -84 -69 -131 -104 -47 -35 -87 -67 -90 -70 -3
-4 -81 -65 -175 -135 -93 -71 -172 -132 -175 -135 -3 -4 -117 -92 -255 -195
-137 -104 -252 -191 -255 -194 -3 -4 -24 -19 -47 -35 l-43 -29 0 -398 c0 -274
3 -399 11 -399 8 0 309 223 410 304 14 12 41 32 59 46 18 14 45 34 59 46 14
12 147 112 294 223 147 111 276 208 285 216 9 8 91 71 182 141 91 69 174 133
185 142 11 10 49 39 85 67 36 27 74 57 85 66 11 10 51 43 90 75 111 93 138
128 177 234 56 149 33 377 -58 587 -8 17 -14 33 -14 36 0 7 -73 164 -109 237
-61 121 -125 227 -146 242 -20 15 -28 8 -12 -10z"/>
<path d="M5510 4135 l-25 -14 26 -1 c16 0 26 5 26 15 0 8 -1 15 -1 15 -1 -1
-12 -7 -26 -15z"/>
<path d="M5447 4083 c-20 -14 -37 -30 -37 -35 0 -12 4 -10 40 22 25 22 36 27
42 18 5 -9 8 -8 8 5 0 23 -9 22 -53 -10z"/>
<path d="M4599 3994 c-13 -7 -32 -17 -41 -20 -10 -3 -18 -15 -18 -26 0 -13 -5
-18 -13 -15 -10 4 -13 -2 -9 -19 2 -14 0 -24 -7 -24 -6 0 -11 -5 -11 -11 0
-15 -22 -35 -49 -44 -17 -5 -20 -9 -11 -15 10 -6 6 -15 -14 -36 -14 -16 -26
-34 -26 -41 0 -7 -4 -13 -10 -13 -5 0 -12 -11 -16 -25 -3 -14 -10 -25 -15 -25
-5 0 -5 -8 -2 -17 6 -16 5 -17 -12 -3 -17 14 -18 13 -12 -2 4 -12 1 -18 -9
-18 -9 0 -18 -9 -21 -20 -3 -11 -9 -17 -14 -14 -5 3 -9 -7 -9 -22 0 -15 -2
-25 -5 -22 -7 7 -75 -60 -75 -73 0 -5 -7 -12 -16 -16 -8 -3 -13 -12 -10 -20 4
-8 -5 -28 -19 -45 -14 -16 -25 -33 -25 -38 0 -4 -9 -10 -21 -13 -12 -3 -18
-10 -14 -16 3 -6 2 -11 -3 -11 -10 0 -52 -73 -52 -91 0 -6 -7 -18 -16 -27 -11
-11 -13 -17 -5 -20 12 -4 61 37 61 51 0 4 5 13 10 20 40 47 50 61 50 70 0 5
11 20 24 32 13 12 27 31 30 43 4 11 13 23 21 26 8 3 15 11 15 17 0 6 11 22 25
35 14 13 25 28 25 34 0 5 5 10 11 10 5 0 7 5 4 10 -3 6 -1 10 4 10 6 0 11 7
11 15 0 9 7 18 15 21 8 4 15 12 15 19 0 7 7 15 15 19 8 3 15 14 15 23 0 10 13
30 29 44 15 14 31 35 35 47 4 12 12 22 17 22 5 0 9 7 9 15 0 9 6 18 14 21 8 3
17 16 20 30 4 13 11 24 16 24 6 0 10 7 10 15 0 9 7 18 15 21 8 4 15 12 15 19
0 8 6 20 13 27 7 7 16 21 20 31 4 11 17 17 38 17 17 0 41 -8 54 -17 12 -10 33
-25 45 -33 13 -8 36 -27 52 -42 16 -16 32 -28 36 -28 9 0 42 -24 87 -65 18
-16 43 -37 55 -45 12 -8 28 -20 34 -26 6 -5 19 -13 29 -17 9 -3 17 -11 17 -17
0 -5 6 -10 13 -10 7 0 20 -8 29 -17 8 -10 31 -29 49 -43 18 -14 41 -33 51 -42
10 -10 22 -18 28 -18 5 0 22 -13 38 -28 16 -16 37 -32 46 -35 9 -4 16 -11 16
-16 0 -5 11 -12 25 -15 14 -4 25 -11 25 -16 0 -6 7 -10 15 -10 9 0 18 -7 21
-15 4 -8 11 -15 18 -15 6 0 26 -13 44 -29 33 -31 72 -49 72 -34 0 12 -55 53
-70 53 -6 0 -8 5 -4 12 4 7 3 8 -4 4 -7 -4 -12 -1 -12 8 0 9 -7 16 -15 16 -8
0 -15 7 -15 15 0 8 -3 14 -7 13 -13 -4 -162 86 -157 94 3 4 -2 5 -10 2 -10 -4
-16 -1 -16 10 0 8 -12 22 -28 30 -15 8 -36 23 -46 35 -10 11 -23 18 -27 15 -5
-3 -9 2 -9 11 0 9 -5 15 -12 13 -6 -2 -21 5 -32 16 -12 12 -39 35 -60 51 -20
17 -47 38 -58 48 -12 9 -27 17 -35 17 -7 0 -16 7 -19 15 -4 8 -9 13 -14 10 -4
-2 -13 7 -20 20 -7 14 -16 25 -20 25 -3 0 -15 8 -26 18 -23 19 -52 39 -74 49
-8 4 -22 15 -30 25 -23 28 -73 39 -101 22z"/>
<path d="M3375 3740 c-3 -5 -1 -10 4 -10 6 0 11 5 11 10 0 6 -2 10 -4 10 -3 0
-8 -4 -11 -10z"/>
<path d="M3361 3711 c-7 -5 -11 -15 -9 -22 3 -10 8 -7 17 9 13 24 12 26 -8 13z"/>
<path d="M3226 3394 c-4 -14 -5 -28 -3 -31 3 -2 8 8 11 23 4 14 5 28 3 31 -3
2 -8 -8 -11 -23z"/>
<path d="M5522 3337 c-10 -12 -8 -16 13 -21 14 -4 25 -11 25 -16 0 -6 6 -10
14 -10 8 0 21 -6 28 -13 7 -7 22 -16 33 -20 15 -6 12 0 -10 21 -16 16 -33 28
-37 25 -5 -2 -8 1 -8 6 0 6 -5 11 -11 11 -7 0 -17 7 -23 16 -11 14 -14 14 -24
1z"/>
<path d="M3200 3311 c0 -25 6 -27 13 -6 4 8 2 17 -3 20 -6 4 -10 -3 -10 -14z"/>
<path d="M4595 3286 c-11 -7 -35 -17 -52 -21 -18 -3 -33 -10 -33 -15 0 -4 -18
-10 -40 -14 -22 -3 -40 -11 -40 -17 0 -7 10 -9 27 -4 15 3 32 7 37 8 5 1 16
-10 23 -25 13 -25 10 -34 -27 -110 -22 -46 -34 -75 -26 -65 10 14 15 15 19 5
3 -7 6 2 6 20 1 21 6 32 16 32 9 0 15 9 15 25 0 14 7 28 15 31 8 4 15 17 15
30 0 12 6 27 13 31 10 7 21 25 55 96 5 10 -1 9 -23 -7z"/>
<path d="M3195 3250 c3 -5 8 -10 11 -10 2 0 4 5 4 10 0 6 -5 10 -11 10 -5 0
-7 -4 -4 -10z"/>
<path d="M4370 3200 c-20 -6 -21 -8 -5 -8 11 0 29 3 40 8 25 11 -1 11 -35 0z"/>
<path d="M3177 3193 c-4 -3 -7 -81 -7 -172 0 -111 4 -161 10 -151 8 12 10 12
10 1 0 -8 3 -11 6 -8 4 4 1 14 -7 24 -9 11 -10 14 -1 9 7 -4 12 -2 12 8 0 8
-6 17 -12 19 -10 4 -9 6 1 6 11 1 11 4 0 18 -8 9 -9 14 -2 10 8 -5 11 6 12 35
1 24 2 80 4 126 2 77 -5 97 -26 75z"/>
<path d="M4000 3169 c0 -5 5 -7 10 -4 6 3 10 8 10 11 0 2 -4 4 -10 4 -5 0 -10
-5 -10 -11z"/>
<path d="M4280 3171 c0 -9 -16 -14 -79 -26 -31 -6 -40 -15 -14 -15 25 0 124
30 138 42 5 4 -3 8 -18 8 -15 0 -27 -4 -27 -9z"/>
<path d="M4100 3110 c0 -13 30 -13 50 0 11 7 7 10 -17 10 -18 0 -33 -4 -33
-10z"/>
<path d="M4415 2940 c3 -5 8 -10 11 -10 2 0 4 5 4 10 0 6 -5 10 -11 10 -5 0
-7 -4 -4 -10z"/>
<path d="M4381 2894 c-12 -19 -21 -39 -21 -44 0 -4 -5 -10 -11 -12 -6 -2 -17
-18 -24 -35 -11 -27 -11 -31 0 -27 7 3 16 17 19 30 4 14 11 22 16 19 6 -3 10
3 10 14 0 11 6 24 14 28 11 7 29 63 21 63 -2 0 -12 -16 -24 -36z"/>
<path d="M4292 2737 c-12 -13 -22 -28 -22 -34 0 -6 -4 -13 -8 -15 -4 -1 -25
-38 -46 -81 -21 -43 -43 -83 -50 -90 -22 -23 -56 -84 -56 -102 0 -11 -5 -15
-14 -12 -10 4 -13 1 -10 -8 3 -7 -5 -32 -18 -55 -63 -116 -76 -145 -70 -154 4
-6 8 -2 10 9 2 11 9 25 16 30 7 6 17 21 21 35 4 13 14 30 21 38 8 7 14 22 14
33 0 11 4 18 9 15 5 -3 12 5 15 19 4 14 10 25 15 25 5 0 12 14 16 30 4 17 10
30 14 30 4 0 18 24 32 54 13 30 27 52 31 50 5 -3 8 2 8 11 0 9 9 28 20 42 11
14 20 32 20 39 0 8 5 14 10 14 6 0 10 9 10 19 0 11 6 26 13 33 12 12 30 48 23
48 -1 0 -12 -10 -24 -23z"/>
<path d="M3380 2311 c5 -11 15 -23 21 -27 6 -3 3 5 -6 20 -20 30 -30 35 -15 7z"/>
<path d="M3410 2250 c0 -5 7 -10 15 -10 8 0 15 5 15 10 0 6 -7 10 -15 10 -8 0
-15 -4 -15 -10z"/>
<path d="M3430 2220 c0 -5 10 -10 23 -10 18 0 19 2 7 10 -19 13 -30 13 -30 0z"/>
<path d="M3972 2160 c-6 -10 -8 -21 -3 -24 5 -3 11 4 14 16 8 29 4 32 -11 8z"/>
<path d="M3477 2159 c7 -7 15 -10 18 -7 3 3 -2 9 -12 12 -14 6 -15 5 -6 -5z"/>
<path d="M3846 1931 c-4 -7 -5 -15 -2 -18 9 -9 19 4 14 18 -4 11 -6 11 -12 0z"/>
<path d="M3755 1771 c-3 -5 -1 -12 5 -16 5 -3 10 1 10 9 0 18 -6 21 -15 7z"/>
<path d="M3705 1693 c-11 -21 -21 -41 -23 -45 -2 -5 3 -8 11 -8 9 0 18 13 22
30 4 17 11 30 16 30 5 0 9 7 9 15 0 26 -16 16 -35 -22z"/>
<path d="M3672 1610 c0 -14 2 -19 5 -12 2 6 2 18 0 25 -3 6 -5 1 -5 -13z"/>
<path d="M3406 1493 c-6 -14 -5 -15 5 -6 7 7 10 15 7 18 -3 3 -9 -2 -12 -12z"/>
<path d="M3400 1149 c0 -5 5 -7 10 -4 6 3 10 8 10 11 0 2 -4 4 -10 4 -5 0 -10
-5 -10 -11z"/>
<path d="M3366 1104 c-3 -8 -10 -12 -16 -9 -6 3 -7 -1 -4 -10 7 -17 30 -14 27
4 -2 6 2 11 7 11 6 0 10 5 10 10 0 16 -17 12 -24 -6z"/>
<path d="M3325 1070 c5 -15 4 -20 -4 -16 -7 4 -11 -1 -11 -13 0 -12 -4 -21 -9
-21 -6 0 -13 -21 -17 -47 -4 -27 -10 -50 -14 -53 -4 -3 -10 -25 -14 -50 -5
-41 -5 -42 5 -12 5 17 14 32 18 32 5 0 12 14 16 30 4 17 11 30 16 30 5 0 9 6
9 13 0 7 9 29 20 50 l20 37 -21 21 -21 21 7 -22z"/>
</g>
</svg>
